<svg xmlns="http://www.w3.org/2000/svg" style="display: none;"><symbol id="party-popper" viewBox="0 0 32 32"><title>party-popper</title><path d="m16.057 25.106c-1.097.404-2.49.916-4.252 1.569-3.009-.42-6.171-1.399-7.538-3.646.498-1.341.932-2.516 1.316-3.553 2.576 2.976 7.077 4.866 10.474 5.63z"/><path d="m16.931 15.069c-2.928-2.927-6.698-5.089-8.235-3.549-.328.328-.229.132-2.508 6.317 2.43 3.507 8.57 5.956 12.847 6.171 1.279-.481 1.249-.505 1.446-.703 1.885-1.885-1.666-6.353-3.55-8.236zm2.488 7.174c-.143.145-.808.152-1.989-.431-1.284-.635-2.749-1.742-4.125-3.118-3.188-3.188-3.933-5.73-3.549-6.114.06-.06.172-.092.331-.092.861 0 3.092.951 5.784 3.642 1.376 1.376 2.484 2.841 3.119 4.125.583 1.179.573 1.845.429 1.988z"/><path d="m9.059 27.694c-1.732.644-3.729 1.39-6.048 2.259-.603.222-1.187-.364-.964-.964.584-1.564 1.111-2.978 1.591-4.268 1.318 1.514 3.3 2.432 5.421 2.973z"/><path d="m19.669 3.895c-.467.082-.918.156-1.224.31.46.706 1.421 1.605.834 2.779-.525 1.05-1.616.988-2.563 1.021.581.794 1.253 1.599.735 2.636-.537 1.075-1.945 1.298-2.776 1.433-.269.044-.519-.136-.569-.403l-.182-.982c-.051-.273.133-.536.406-.584.473-.083.916-.155 1.224-.31-.462-.701-1.419-1.609-.835-2.778.524-1.047 1.614-.988 2.563-1.021-.582-.794-1.253-1.599-.735-2.636.537-1.074 1.946-1.298 2.775-1.433.269-.044.519.136.568.403l.182.982c.053.273-.129.535-.403.583z"/><path d="m28.689 11.925.982.182c.268.05.447.3.403.568-.135.829-.359 2.238-1.433 2.775-1.037.518-1.842-.153-2.636-.735-.033.949.026 2.04-1.021 2.563-1.169.584-2.077-.373-2.778-.835-.155.308-.227.751-.31 1.224-.048.274-.311.457-.584.406l-.982-.182c-.268-.05-.447-.3-.403-.569.135-.83.359-2.238 1.433-2.776 1.036-.518 1.842.154 2.636.735.033-.947-.029-2.039 1.021-2.563 1.174-.587 2.073.374 2.779.834.154-.306.228-.757.31-1.224.047-.271.309-.453.583-.403z"/><path d="m25.7 21h-1.9c-.166 0-.3-.134-.3-.3v-.9c0-.166.134-.3.3-.3h1.9c.166 0 .3.134.3.3v.9c0 .166-.134.3-.3.3z"/><path d="m27.788 3.273-1.344 1.344c-.117.117-.307.117-.424 0l-.636-.637c-.117-.117-.117-.307 0-.424l1.344-1.344c.117-.117.307-.117.424 0l.636.636c.117.117.117.307 0 .425z"/><path d="m12.2 6.5h-.9c-.166 0-.3-.134-.3-.3v-1.9c0-.166.134-.3.3-.3h.9c.166 0 .3.134.3.3v1.9c0 .166-.134.3-.3.3z"/><path d="m19.383 13.255-.75-.5c-.141-.094-.182-.284-.085-.423 2.041-2.904 5.976-5.931 10.139-6.077.171-.005.313.137.313.307v.901c0 .16-.126.285-.286.292-3.483.138-7.051 2.761-8.928 5.424-.093.133-.269.166-.403.076z"/></symbol><symbol id="sad" viewBox="0 0 295.996 295.996"><title>sad</title><path d="M147.998,0C66.392,0,0,66.392,0,147.998c0,81.606,66.392,147.998,147.998,147.998c81.606,0,147.998-66.392,147.998-147.998 C295.996,66.392,229.604,0,147.998,0z M147.998,279.996c-36.257,0-69.143-14.696-93.023-38.44 c-9.536-9.482-17.631-20.41-23.934-32.42C21.442,190.847,16,170.047,16,147.998C16,75.214,75.214,16,147.998,16 c34.523,0,65.987,13.328,89.533,35.102c12.208,11.288,22.289,24.844,29.558,39.996c8.27,17.239,12.907,36.538,12.907,56.9 C279.996,220.782,220.782,279.996,147.998,279.996z"/><path d="M163.638,187.607c17.554,3.671,33.322,13.54,44.4,27.789l12.631-9.82c-13.402-17.24-32.494-29.184-53.756-33.631 c-34.195-7.146-70.146,6.052-91.587,33.631l12.633,9.82C105.675,192.607,135.382,181.697,163.638,187.607z"/><circle cx="98.666" cy="114.998" r="16"/><circle cx="197.666" cy="114.998" r="16"/></symbol></svg>